<?xml version="1.0" encoding="utf-8"?>
<!-- Generator: Adobe Illustrator 22.0.1, SVG Export Plug-In . SVG Version: 6.00 Build 0)  -->
<svg version="1.1" id="Layer_1" xmlns="http://www.w3.org/2000/svg" xmlns:xlink="http://www.w3.org/1999/xlink" x="0px" y="0px"
	 viewBox="0 0 113.4 113.4" style="enable-background:new 0 0 113.4 113.4;" xml:space="preserve">
<style type="text/css">
	.st0{fill:#fff;}
</style>
<path class="st0" d="M24.8,29.2h14.7v-4c0-4.6,1.9-8.9,5-11.9c3.1-3.1,7.3-5,11.9-5c4.6,0,8.9,1.9,11.9,5c3.1,3.1,5,7.3,5,11.9v4H88
	c0.9,0,1.5,0.7,1.6,1.5l9.3,73.1c0.1,0.9-0.5,1.7-1.4,1.8c-0.1,0-0.1,0-0.2,0v0H15.4c-0.9,0-1.6-0.7-1.6-1.6c0-0.1,0-0.2,0-0.3
	l9.3-73.1C23.3,29.8,24,29.2,24.8,29.2L24.8,29.2z M42.7,29.2h27.4v-4c0-3.8-1.5-7.2-4-9.7s-5.9-4-9.7-4c-3.8,0-7.2,1.5-9.7,4
	c-2.5,2.5-4,5.9-4,9.7V29.2z M39.5,38.7v-6.4H26.2l-8.9,70.1h78.3l-8.9-70.1H73.3v6.4c0.9,0.3,1.7,0.7,2.3,1.4l0,0
	c1,1,1.6,2.4,1.6,3.9c0,1.5-0.6,2.9-1.6,3.9L75.5,48c-1,0.9-2.3,1.5-3.8,1.5c-1.5,0-2.9-0.6-3.9-1.6c-1-1-1.6-2.4-1.6-3.9
	c0-1.5,0.6-2.9,1.6-3.9l0,0c0.6-0.6,1.4-1.1,2.3-1.4v-6.4H42.7v6.4c0.9,0.3,1.7,0.8,2.3,1.4l0.1,0.1c0.9,1,1.5,2.3,1.5,3.8
	c0,1.5-0.6,2.9-1.6,3.9c-1,1-2.4,1.6-3.9,1.6c-1.5,0-2.9-0.6-3.9-1.6c-1-1-1.6-2.4-1.6-3.9c0-1.5,0.6-2.9,1.6-3.9l0,0
	C37.8,39.5,38.6,39,39.5,38.7L39.5,38.7z M71.7,41.7L71.7,41.7L71.7,41.7c-0.7,0-1.3,0.3-1.7,0.7l0,0l0,0c-0.4,0.4-0.7,1-0.7,1.7
	c0,0.7,0.3,1.2,0.7,1.7c0.4,0.4,1,0.7,1.7,0.7c0.6,0,1.2-0.2,1.6-0.6l0.1-0.1c0.4-0.4,0.7-1,0.7-1.7c0-0.7-0.3-1.2-0.7-1.7
	C72.9,41.9,72.4,41.7,71.7,41.7L71.7,41.7z M42.8,42.4c-0.4-0.4-1-0.7-1.7-0.7c-0.7,0-1.2,0.3-1.7,0.7l0,0l0,0
	c-0.4,0.4-0.7,1-0.7,1.7c0,0.7,0.3,1.2,0.7,1.7c0.4,0.4,1,0.7,1.7,0.7c0.7,0,1.2-0.3,1.7-0.7c0.4-0.4,0.7-1,0.7-1.7
	C43.5,43.4,43.2,42.8,42.8,42.4L42.8,42.4z"/>
</svg>
